<svg  height="343" preserveAspectRatio="xMidYMid meet" viewBox="0 0 4580 3430" width="458" xmlns="http://www.w3.org/2000/svg"><path fill="#8BA77F" d="m361 2437c60-14 119-49 138-81 38-61 42-138 39-686l-3-526-25-49c-20-40-36-55-78-77l-52-26 108-7c59-5 455-5 881-1 714 7 779 9 848 27 41 10 92 28 113 40l39 22 58-26c120-53 161-59 430-64l251-5 74 94c41 51 235 300 432 553s363 465 368 470c6 6 8-171 6-465-3-434-5-479-22-517-21-49-74-100-114-109-85-18-47-23 178-22 176 0 230 3 192 9-66 11-102 30-135 69-49 58-50 65-54 743l-5 637h-32c-31 0-47-18-283-315l-250-315-18 68c-55 200-194 374-378 471-51 27-54 30-39 44 24 22 68 37 110 38 27 0 32 2 17 7-11 4-148 5-305 1-269-5-289-7-360-31-75-24-77-24-118-7-22 10-67 23-99 29-69 13-1965 20-1912 7zm931-48c30-8 40-18 60-57l23-47 3-539c3-589 0-632-46-665-64-45-117-54-339-59l-213-4v322 323l99-5c82-4 109-10 155-32 48-24 59-34 85-88l31-61-1 249c-1 239-2 246-15 185-33-153-99-206-273-218l-83-6 4 239c6 269 14 312 73 381 43 51 110 83 195 93 72 8 185 3 242-11zm706 6c66-7 143-35 206-75l48-31-52-46c-155-139-239-349-227-563 10-173 73-319 194-450 58-63 61-68 45-82-38-34-106-69-176-93-68-23-90-25-245-25h-171v583c0 363 4 599 11 627 13 57 50 105 100 131 43 21 136 38 184 33 17-2 54-6 83-9zm862-13c62-20 118-61 182-131 145-161 209-432 163-697-15-86-17-90-88-178-40-50-95-122-121-159-108-152-182-207-276-207-60 0-170 28-214 54-72 42-74 49-20 98 96 88 172 220 216 375 30 105 33 352 5 453-29 105-84 204-153 279-70 75-70 77 2 107 80 34 212 37 304 6zm-472-264c56-110 75-204 75-368 0-118-4-160-22-225-21-79-74-201-104-240-15-19-17-18-40 35-57 129-71 212-72 400 0 136 4 189 18 240 20 74 94 233 106 226 4-3 22-33 39-68z"/></svg>